<?xml version="1.0" encoding="UTF-8"?>
<!DOCTYPE svg PUBLIC "-//W3C//DTD SVG 1.1//EN" "http://www.w3.org/Graphics/SVG/1.1/DTD/svg11.dtd">
<svg xmlns="http://www.w3.org/2000/svg" version="1.1" width="300px" height="100px" style="shape-rendering:geometricPrecision; text-rendering:geometricPrecision; image-rendering:optimizeQuality; fill-rule:evenodd; clip-rule:evenodd" xmlns:xlink="http://www.w3.org/1999/xlink">
<g><path style="opacity:0.642" fill="#fefffe" d="M 58.5,103.5 C 52.8333,103.5 47.1667,103.5 41.5,103.5C 18.5039,98.5039 4.50389,84.5039 -0.5,61.5C -0.5,55.5 -0.5,49.5 -0.5,43.5C 7.48344,13.3758 27.1501,-0.790905 58.5,1C 89.0411,9.56128 103.208,29.728 101,61.5C 95.5367,84.4642 81.37,98.4642 58.5,103.5 Z M 44.5,18.5 C 67.1748,18.3381 80.1748,29.5048 83.5,52C 81.3988,72.6012 70.0655,84.1012 49.5,86.5C 29.651,83.6523 18.651,72.319 16.5,52.5C 17.845,34.4269 27.1783,23.0936 44.5,18.5 Z M 37.5,33.5 C 41.643,33.6524 44.9763,35.3191 47.5,38.5C 45.5,39.8333 43.8333,41.5 42.5,43.5C 35.4747,46.9444 32.9747,44.6111 35,36.5C 35.6979,35.3094 36.5313,34.3094 37.5,33.5 Z M 62.5,34.5 C 64.8568,34.3367 67.1902,34.5034 69.5,35C 70.5681,38.5392 70.2348,42.0392 68.5,45.5C 68.8178,46.6473 69.4844,47.4806 70.5,48C 69.5838,48.3742 68.7504,48.8742 68,49.5C 66.5993,47.8078 64.7659,47.1412 62.5,47.5C 62.6567,46.1266 62.49,44.7932 62,43.5C 60.3149,41.9825 58.8149,40.3159 57.5,38.5C 59.0147,36.9178 60.6814,35.5845 62.5,34.5 Z M 51.5,41.5 C 54.3948,43.2023 56.2281,45.5356 57,48.5C 53.755,47.6852 50.5884,47.3518 47.5,47.5C 47.2907,46.914 46.9574,46.414 46.5,46C 48.6605,45.0041 50.3272,43.5041 51.5,41.5 Z M 57.5,51.5 C 58.5,51.5 59.5,51.5 60.5,51.5C 60.5,53.8333 60.5,56.1667 60.5,58.5C 57.2592,59.8788 54.0926,61.5454 51,63.5C 48.8876,62.392 47.0542,60.892 45.5,59C 46.3333,58.1667 47.1667,57.3333 48,56.5C 52.5821,59.7198 56.0821,58.8865 58.5,54C 57.7476,53.3292 57.4142,52.4959 57.5,51.5 Z M 64.5,51.5 C 65.6935,51.9704 66.3601,52.9704 66.5,54.5C 67.1123,56.3381 67.1123,58.0047 66.5,59.5C 72.1679,73.4912 68.5012,76.3245 55.5,68C 59.0082,65.3542 61.8415,62.1876 64,58.5C 64.4966,56.1902 64.6633,53.8568 64.5,51.5 Z M 36.5,59.5 C 40.8146,60.8374 44.4813,63.3374 47.5,67C 43.7525,70.3808 39.4192,71.7141 34.5,71C 33.4258,70.2613 32.7591,69.2613 32.5,68C 33.1809,64.8072 34.5143,61.9738 36.5,59.5 Z"/></g>
<g><path style="opacity:0.618" fill="#fefffe" d="M 300.5,11.5 C 301.822,11.33 302.989,11.6634 304,12.5C 305.153,15.7111 305.82,19.0445 306,22.5C 308.019,19.2882 310.853,17.6216 314.5,17.5C 314.837,21.3076 314.337,24.9743 313,28.5C 311.352,29.717 309.519,30.5503 307.5,31C 308.766,31.3095 309.933,31.8095 311,32.5C 311.804,37.7513 311.637,42.918 310.5,48C 315.67,52.5161 321.336,56.1828 327.5,59C 326.284,60.7398 324.618,61.7398 322.5,62C 317.167,62.6667 311.833,62.6667 306.5,62C 305.257,60.8455 304.257,59.5122 303.5,58C 300.019,57.8605 296.519,58.0271 293,58.5C 288.138,57.7289 283.471,57.0622 279,56.5C 271.389,59.397 268.556,56.7304 270.5,48.5C 278.867,44.2676 280.201,38.4342 274.5,31C 274.645,30.228 274.978,29.5613 275.5,29C 277.134,28.5065 278.801,28.3398 280.5,28.5C 280.933,25.8344 281.433,23.1677 282,20.5C 284.379,15.4947 287.379,15.1613 291,19.5C 291.182,22.2263 291.682,24.8929 292.5,27.5C 294.115,26.846 295.782,26.346 297.5,26C 297.994,21.0388 298.994,16.2055 300.5,11.5 Z"/></g>
<g><path style="opacity:0.598" fill="#fefffe" d="M 135.5,12.5 C 138.421,12.1459 140.754,13.1459 142.5,15.5C 143.866,18.6925 144.699,22.0258 145,25.5C 149.99,27.7449 153.49,31.4115 155.5,36.5C 149.842,41.4915 147.176,47.8248 147.5,55.5C 145.088,56.5773 142.754,57.744 140.5,59C 142.337,60.4803 144.337,60.4803 146.5,59C 149.5,58.3333 152.5,58.3333 155.5,59C 156.576,60.7261 156.743,62.5594 156,64.5C 150.452,68.3482 144.285,69.5149 137.5,68C 134.363,65.5601 132.363,62.3935 131.5,58.5C 128.822,57.4452 126.322,56.1118 124,54.5C 123.333,49.5 123.333,44.5 124,39.5C 124.718,38.5494 125.551,38.3828 126.5,39C 127.594,40.7803 128.594,42.6136 129.5,44.5C 129.833,43.8333 130.167,43.1667 130.5,42.5C 129.364,40.6822 128.697,38.6822 128.5,36.5C 131.353,30.6165 134.02,24.6165 136.5,18.5C 134.826,16.5699 134.493,14.5699 135.5,12.5 Z M 142.5,31.5 C 144.484,31.484 145.484,32.484 145.5,34.5C 145.196,36.4405 144.363,38.1072 143,39.5C 142.503,36.854 142.336,34.1873 142.5,31.5 Z"/></g>
<g><path style="opacity:0.56" fill="#fefffe" d="M 419.5,16.5 C 419.5,19.1667 419.5,21.8333 419.5,24.5C 414.531,25.9395 409.531,27.2729 404.5,28.5C 404.523,26.0733 405.023,23.74 406,21.5C 408.134,19.1973 409.634,16.5307 410.5,13.5C 411.723,12.3861 413.056,12.2195 414.5,13C 416.196,14.1764 417.862,15.343 419.5,16.5 Z"/></g>
<g><path style="opacity:0.579" fill="#fefffe" d="M 234.5,13.5 C 237.585,13.418 239.252,14.918 239.5,18C 238.468,21.8822 236.302,25.0488 233,27.5C 232.575,31.8695 232.908,36.2028 234,40.5C 235.447,36.2151 238.281,33.5484 242.5,32.5C 242.174,26.1744 245.174,23.8411 251.5,25.5C 251.5,21.5 251.5,17.5 251.5,13.5C 254.755,13.0136 257.422,14.0136 259.5,16.5C 260.262,20.1111 260.762,23.7778 261,27.5C 262.738,30.8695 263.905,34.3695 264.5,38C 262.545,50.1158 259.878,62.1158 256.5,74C 255.551,74.6172 254.718,74.4506 254,73.5C 251.306,66.7617 249.806,59.7617 249.5,52.5C 238.649,53.1512 236.649,49.1512 243.5,40.5C 243.192,39.6919 242.692,39.0253 242,38.5C 240.098,42.7392 237.765,46.7392 235,50.5C 235.418,55.4645 235.418,60.4645 235,65.5C 233.062,67.9784 230.895,68.1451 228.5,66C 226.845,64.5557 226.178,62.7224 226.5,60.5C 229.957,60.3328 230.29,59.3328 227.5,57.5C 219.481,64.017 216.647,62.017 219,51.5C 219.833,49.8333 220.667,48.1667 221.5,46.5C 219.78,46.2537 217.78,46.2537 215.5,46.5C 215.248,43.6802 215.748,41.0135 217,38.5C 220.082,36.375 223.249,34.375 226.5,32.5C 226.203,24.7775 228.869,18.4442 234.5,13.5 Z"/></g>
<g><path style="opacity:0.611" fill="#fefffe" d="M 394.5,53.5 C 389.887,51.4458 389.22,48.2792 392.5,44C 388.657,43.63 385.99,45.2966 384.5,49C 382.299,49.8249 380.466,49.3249 379,47.5C 376.92,37.9093 380.753,32.4093 390.5,31C 384.975,28.0812 383.142,23.5812 385,17.5C 387.333,14.8333 389.667,14.8333 392,17.5C 393.705,21.6427 394.205,25.8094 393.5,30C 397.801,29.6369 402.134,29.6369 406.5,30C 413.168,32.817 414.001,36.6504 409,41.5C 407.662,45.5174 406.662,49.5174 406,53.5C 411.382,50.1665 414.882,51.6665 416.5,58C 416.245,59.3261 415.578,60.3261 414.5,61C 411.905,61.2256 409.405,61.7256 407,62.5C 406.81,66.0755 405.643,69.2422 403.5,72C 399.5,72.6667 395.5,72.6667 391.5,72C 388.658,67.0082 385.658,62.1749 382.5,57.5C 382.703,55.7923 383.536,54.459 385,53.5C 388.269,54.8184 391.435,54.8184 394.5,53.5 Z M 394.5,53.5 C 395.737,50.7554 397.57,48.4221 400,46.5C 399.906,50.1041 398.073,52.4374 394.5,53.5 Z M 396.5,61.5 C 397.376,61.3691 398.043,61.7025 398.5,62.5C 397.277,63.6139 395.944,63.7805 394.5,63C 395.416,62.7216 396.082,62.2216 396.5,61.5 Z"/></g>
<g><path style="opacity:0.606" fill="#fefffe" d="M 349.5,16.5 C 353.147,16.6216 355.981,18.2882 358,21.5C 358.282,25.0016 358.449,28.3349 358.5,31.5C 362.848,29.9654 367.014,30.2987 371,32.5C 371.63,34.9034 370.797,36.7367 368.5,38C 364.424,38.4758 360.59,39.6425 357,41.5C 356.774,44.095 356.274,46.595 355.5,49C 365.186,47.5179 370.186,51.6846 370.5,61.5C 363.437,61.7215 357.604,59.0548 353,53.5C 349.614,56.6346 345.614,58.6346 341,59.5C 337.332,58.4965 335.998,56.1631 337,52.5C 338.353,51.3147 339.52,49.9814 340.5,48.5C 337.855,47.8081 335.355,46.8081 333,45.5C 331.877,42.0437 332.71,39.2103 335.5,37C 338.758,36.7883 341.924,36.2883 345,35.5C 345.333,30.8333 345.667,26.1667 346,21.5C 346.669,19.4098 347.836,17.7432 349.5,16.5 Z"/></g>
<g><path style="opacity:0.582" fill="#fefffe" d="M 184.5,17.5 C 192.696,17.529 195.863,21.529 194,29.5C 191.964,32.6019 190.964,35.9352 191,39.5C 194.487,40.2394 197.987,41.0728 201.5,42C 203.919,43.5088 204.919,45.6755 204.5,48.5C 202.194,48.9926 199.861,49.3259 197.5,49.5C 199.475,59.2102 195.641,63.8768 186,63.5C 182.477,63.2933 178.977,62.96 175.5,62.5C 176.292,56.7419 174.958,51.5753 171.5,47C 171.667,46.1667 171.833,45.3333 172,44.5C 174.904,42.7732 178.07,42.1065 181.5,42.5C 182.259,37.6285 183.259,32.7952 184.5,28C 182.885,26.3627 181.551,24.5294 180.5,22.5C 181.127,20.2127 182.46,18.546 184.5,17.5 Z M 182.5,49.5 C 184.167,49.5 185.833,49.5 187.5,49.5C 187.958,54.8607 186.125,56.1941 182,53.5C 181.421,52.0715 181.588,50.7382 182.5,49.5 Z"/></g>
<g><path style="opacity:0.457" fill="#fefffe" d="M 395.5,17.5 C 398.265,17.7976 400.765,18.7976 403,20.5C 403.445,26.1983 400.945,27.8649 395.5,25.5C 394.484,22.8663 394.484,20.1996 395.5,17.5 Z"/></g>
<g><path style="opacity:0.341" fill="#fefffe" d="M 32.5,56.5 C 23.7214,59.0568 20.3881,55.7235 22.5,46.5C 23.8333,46.5 25.1667,46.5 26.5,46.5C 27.1667,55.8333 27.8333,55.8333 28.5,46.5C 29.8734,46.6567 31.2068,46.49 32.5,46C 28.0491,33.2052 32.3824,28.2052 45.5,31C 47.8696,32.1848 50.2029,33.3515 52.5,34.5C 56.4335,32.4742 60.6002,31.1409 65,30.5C 70.6992,30.5337 73.8659,33.367 74.5,39C 73.8957,41.5238 73.229,44.0238 72.5,46.5C 74.3603,47.9387 76.027,49.6053 77.5,51.5C 77.1131,52.7199 76.2798,53.3865 75,53.5C 73.4223,52.4528 71.9223,52.4528 70.5,53.5C 70.8076,54.3081 71.3076,54.9747 72,55.5C 77.6598,53.9533 78.4932,55.12 74.5,59C 73.5,59.3333 72.5,59.6667 71.5,60C 75.5215,72.6344 71.1881,77.6344 58.5,75C 55.7513,73.8773 53.2513,72.3773 51,70.5C 45.5493,74.4318 39.716,75.5984 33.5,74C 31.1447,72.2936 29.8113,69.9603 29.5,67C 30.1172,63.3605 31.1172,59.8605 32.5,56.5 Z M 37.5,33.5 C 36.5313,34.3094 35.6979,35.3094 35,36.5C 32.9747,44.6111 35.4747,46.9444 42.5,43.5C 43.8333,41.5 45.5,39.8333 47.5,38.5C 44.9763,35.3191 41.643,33.6524 37.5,33.5 Z M 62.5,34.5 C 60.6814,35.5845 59.0147,36.9178 57.5,38.5C 58.8149,40.3159 60.3149,41.9825 62,43.5C 62.49,44.7932 62.6567,46.1266 62.5,47.5C 64.7659,47.1412 66.5993,47.8078 68,49.5C 68.7504,48.8742 69.5838,48.3742 70.5,48C 69.4844,47.4806 68.8178,46.6473 68.5,45.5C 70.2348,42.0392 70.5681,38.5392 69.5,35C 67.1902,34.5034 64.8568,34.3367 62.5,34.5 Z M 51.5,41.5 C 50.3272,43.5041 48.6605,45.0041 46.5,46C 46.9574,46.414 47.2907,46.914 47.5,47.5C 50.5884,47.3518 53.755,47.6852 57,48.5C 56.2281,45.5356 54.3948,43.2023 51.5,41.5 Z M 57.5,51.5 C 57.4142,52.4959 57.7476,53.3292 58.5,54C 56.0821,58.8865 52.5821,59.7198 48,56.5C 47.1667,57.3333 46.3333,58.1667 45.5,59C 47.0542,60.892 48.8876,62.392 51,63.5C 54.0926,61.5454 57.2592,59.8788 60.5,58.5C 60.5,56.1667 60.5,53.8333 60.5,51.5C 59.5,51.5 58.5,51.5 57.5,51.5 Z M 64.5,51.5 C 64.6633,53.8568 64.4966,56.1902 64,58.5C 61.8415,62.1876 59.0082,65.3542 55.5,68C 68.5012,76.3245 72.1679,73.4912 66.5,59.5C 67.1123,58.0047 67.1123,56.3381 66.5,54.5C 66.3601,52.9704 65.6935,51.9704 64.5,51.5 Z M 36.5,59.5 C 34.5143,61.9738 33.1809,64.8072 32.5,68C 32.7591,69.2613 33.4258,70.2613 34.5,71C 39.4192,71.7141 43.7525,70.3808 47.5,67C 44.4813,63.3374 40.8146,60.8374 36.5,59.5 Z"/></g>
<g><path style="opacity:0.386" fill="#fefffe" d="M 124.5,79.5 C 127.518,79.3354 130.518,79.502 133.5,80C 134.09,81.2989 135.09,82.1322 136.5,82.5C 138.167,81.5 139.833,80.5 141.5,79.5C 142.5,79.8333 143.167,80.5 143.5,81.5C 150.134,82.4967 156.8,82.83 163.5,82.5C 163.5,81.5 163.5,80.5 163.5,79.5C 168.445,80.4799 173.279,81.8132 178,83.5C 177.914,86.7025 176.914,89.7025 175,92.5C 174.275,93.0585 173.442,93.3918 172.5,93.5C 167.288,90.8485 161.955,90.1818 156.5,91.5C 154.167,91.3333 151.833,91.1667 149.5,91C 149,90.5 148.5,90 148,89.5C 145.617,90.7657 142.95,91.4324 140,91.5C 135.339,91.0507 130.839,90.8841 126.5,91C 124.77,88.343 123.77,85.343 123.5,82C 123.743,81.0979 124.077,80.2646 124.5,79.5 Z M 128.5,84.5 C 128.56,83.9569 128.893,83.6236 129.5,83.5C 130.583,84.365 130.749,85.365 130,86.5C 129.722,85.5842 129.222,84.9175 128.5,84.5 Z"/></g>
<g><path style="opacity:0.409" fill="#fefffe" d="M 187.5,79.5 C 192.735,79.6573 198.068,79.824 203.5,80C 207.94,84.1246 212.607,84.2913 217.5,80.5C 219.816,81.9318 222.316,82.9318 225,83.5C 228.667,82.1667 232.333,82.1667 236,83.5C 237.354,78.4634 239.021,78.4634 241,83.5C 242.667,82.1667 244.333,82.1667 246,83.5C 246.814,85.9018 246.647,88.2351 245.5,90.5C 244.554,90.9867 243.554,91.3201 242.5,91.5C 225.833,91.1666 209.166,91.1666 192.5,91.5C 193.008,88.8239 193.175,86.1572 193,83.5C 192.333,84.1667 191.667,84.8333 191,85.5C 191.128,87.445 190.962,89.2784 190.5,91C 187.106,91.7517 183.773,91.5851 180.5,90.5C 178.433,85.3529 180.099,82.5196 185.5,82C 186.381,81.2917 187.047,80.4584 187.5,79.5 Z"/></g>
<g><path style="opacity:0.416" fill="#fefffe" d="M 249.5,79.5 C 251.201,79.9662 252.701,79.9662 254,79.5C 256.439,83.3776 258.939,83.3776 261.5,79.5C 268.704,82.8808 276.038,83.8808 283.5,82.5C 285.055,82.722 286.389,83.3887 287.5,84.5C 288.468,83.5109 289.635,82.8443 291,82.5C 294.413,82.4897 297.913,82.823 301.5,83.5C 303.111,82.6798 303.778,81.3464 303.5,79.5C 305.722,79.178 307.556,79.8446 309,81.5C 309.091,84.8843 308.924,88.0509 308.5,91C 304.163,90.1971 299.83,90.3638 295.5,91.5C 292.42,91.6804 289.587,91.0138 287,89.5C 285.806,90.4303 284.473,91.0969 283,91.5C 271.337,91.2804 259.504,91.2804 247.5,91.5C 246.99,87.1869 247.657,83.1869 249.5,79.5 Z"/></g>
<g><path style="opacity:0.428" fill="#fefffe" d="M 310.5,79.5 C 313.187,79.3359 315.854,79.5026 318.5,80C 322.828,84.5943 326.994,84.4276 331,79.5C 336.131,82.6429 341.631,83.6429 347.5,82.5C 347.5,81.5 347.5,80.5 347.5,79.5C 348.873,79.3433 350.207,79.51 351.5,80C 353.009,81.9239 355.009,83.0906 357.5,83.5C 361.777,82.3945 366.11,82.2278 370.5,83C 370.957,83.414 371.291,83.914 371.5,84.5C 370.022,87.2883 368.689,90.1217 367.5,93C 364.5,93.6667 361.5,93.6667 358.5,93C 357.874,92.2496 357.374,91.4162 357,90.5C 341.964,91.3425 326.798,91.6758 311.5,91.5C 311.357,89.7376 311.691,88.0709 312.5,86.5C 310.827,84.4775 310.16,82.1441 310.5,79.5 Z"/></g>
<g><path style="opacity:0.419" fill="#fefffe" d="M 380.5,79.5 C 385.047,80.793 385.714,83.293 382.5,87C 383.517,88.0495 383.684,89.2161 383,90.5C 379.796,90.7592 376.63,90.7592 373.5,90.5C 372.353,88.2351 372.186,85.9018 373,83.5C 374.667,82.1667 376.333,82.1667 378,83.5C 378.48,81.867 379.313,80.5336 380.5,79.5 Z"/></g>
<g><path style="opacity:0.431" fill="#fefffe" d="M 388.5,79.5 C 391.346,80.0946 394.346,80.0946 397.5,79.5C 397.5,80.5 397.5,81.5 397.5,82.5C 399.638,82.297 401.305,81.297 402.5,79.5C 406.394,82.5868 410.727,83.7534 415.5,83C 416.713,85.6865 417.38,88.5198 417.5,91.5C 407.651,91.5158 397.984,91.3491 388.5,91C 386.09,90.2421 385.09,88.5754 385.5,86C 385.391,83.2884 386.391,81.1217 388.5,79.5 Z M 389.5,83.5 C 394.622,85.2393 394.622,86.5726 389.5,87.5C 389.5,86.1667 389.5,84.8333 389.5,83.5 Z"/></g>
</svg>
